<?xml version="1.0" encoding="UTF-8" standalone="no"?>
<svg
   xmlns:dc="http://purl.org/dc/elements/1.1/"
   xmlns:cc="http://creativecommons.org/ns#"
   xmlns:rdf="http://www.w3.org/1999/02/22-rdf-syntax-ns#"
   xmlns:svg="http://www.w3.org/2000/svg"
   xmlns="http://www.w3.org/2000/svg"
   xmlns:sodipodi="http://sodipodi.sourceforge.net/DTD/sodipodi-0.dtd"
   xmlns:inkscape="http://www.inkscape.org/namespaces/inkscape"
   id="visual"
   viewBox="0 0 900 600"
   width="900"
   height="600"
   version="1.1"
   sodipodi:docname="layered-waves-haikei.svg"
   inkscape:version="1.0.2-2 (e86c870879, 2021-01-15)">
  <metadata
     id="metadata23">
    <rdf:RDF>
      <cc:Work
         rdf:about="">
        <dc:format>image/svg+xml</dc:format>
        <dc:type
           rdf:resource="http://purl.org/dc/dcmitype/StillImage" />
      </cc:Work>
    </rdf:RDF>
  </metadata>
  <defs
     id="defs21" />
  <sodipodi:namedview
     pagecolor="#ffffff"
     bordercolor="#666666"
     borderopacity="1"
     objecttolerance="10"
     gridtolerance="10"
     guidetolerance="10"
     inkscape:pageopacity="0"
     inkscape:pageshadow="2"
     inkscape:window-width="1440"
     inkscape:window-height="837"
     id="namedview19"
     showgrid="false"
     inkscape:zoom="1.03"
     inkscape:cx="263.1068"
     inkscape:cy="377.6699"
     inkscape:window-x="-8"
     inkscape:window-y="-8"
     inkscape:window-maximized="1"
     inkscape:current-layer="visual" />
  <g
     id="g33"
     style="opacity:0.75">
    <rect
       x="0"
       y="0"
       width="900"
       height="600"
       fill="#F3EED9"
       id="rect2" />
    <path
       d="M0 353L21.5 344C43 335 86 317 128.8 309C171.7 301 214.3 303 257.2 306.3C300 309.7 343 314.3 385.8 312.2C428.7 310 471.3 301 514.2 311.2C557 321.3 600 350.7 642.8 356C685.7 361.3 728.3 342.7 771.2 332.5C814 322.3 857 320.7 878.5 319.8L900 319L900 601L878.5 601C857 601 814 601 771.2 601C728.3 601 685.7 601 642.8 601C600 601 557 601 514.2 601C471.3 601 428.7 601 385.8 601C343 601 300 601 257.2 601C214.3 601 171.7 601 128.8 601C86 601 43 601 21.5 601L0 601Z"
       fill="#8d1f1f"
       id="path4" />
    <path
       d="M0 395L21.5 396.5C43 398 86 401 128.8 391.7C171.7 382.3 214.3 360.7 257.2 356.7C300 352.7 343 366.3 385.8 367.7C428.7 369 471.3 358 514.2 361C557 364 600 381 642.8 383.8C685.7 386.7 728.3 375.3 771.2 375.5C814 375.7 857 387.3 878.5 393.2L900 399L900 601L878.5 601C857 601 814 601 771.2 601C728.3 601 685.7 601 642.8 601C600 601 557 601 514.2 601C471.3 601 428.7 601 385.8 601C343 601 300 601 257.2 601C214.3 601 171.7 601 128.8 601C86 601 43 601 21.5 601L0 601Z"
       fill="#a32748"
       id="path6" />
    <path
       d="M0 439L21.5 429.8C43 420.7 86 402.3 128.8 393.7C171.7 385 214.3 386 257.2 395.3C300 404.7 343 422.3 385.8 432.3C428.7 442.3 471.3 444.7 514.2 435.3C557 426 600 405 642.8 401.7C685.7 398.3 728.3 412.7 771.2 414.2C814 415.7 857 404.3 878.5 398.7L900 393L900 601L878.5 601C857 601 814 601 771.2 601C728.3 601 685.7 601 642.8 601C600 601 557 601 514.2 601C471.3 601 428.7 601 385.8 601C343 601 300 601 257.2 601C214.3 601 171.7 601 128.8 601C86 601 43 601 21.5 601L0 601Z"
       fill="#ae3c74"
       id="path8" />
    <path
       d="M0 447L21.5 445.5C43 444 86 441 128.8 446.8C171.7 452.7 214.3 467.3 257.2 469.8C300 472.3 343 462.7 385.8 451.3C428.7 440 471.3 427 514.2 420.5C557 414 600 414 642.8 418.7C685.7 423.3 728.3 432.7 771.2 437C814 441.3 857 440.7 878.5 440.3L900 440L900 601L878.5 601C857 601 814 601 771.2 601C728.3 601 685.7 601 642.8 601C600 601 557 601 514.2 601C471.3 601 428.7 601 385.8 601C343 601 300 601 257.2 601C214.3 601 171.7 601 128.8 601C86 601 43 601 21.5 601L0 601Z"
       fill="#ad569f"
       id="path10" />
    <path
       d="M0 506L21.5 506.2C43 506.3 86 506.7 128.8 497.8C171.7 489 214.3 471 257.2 462.7C300 454.3 343 455.7 385.8 464.5C428.7 473.3 471.3 489.7 514.2 494.5C557 499.3 600 492.7 642.8 487.2C685.7 481.7 728.3 477.3 771.2 477.2C814 477 857 481 878.5 483L900 485L900 601L878.5 601C857 601 814 601 771.2 601C728.3 601 685.7 601 642.8 601C600 601 557 601 514.2 601C471.3 601 428.7 601 385.8 601C343 601 300 601 257.2 601C214.3 601 171.7 601 128.8 601C86 601 43 601 21.5 601L0 601Z"
       fill="#9f72c7"
       id="path12" />
    <path
       d="M0 525L21.5 527.2C43 529.3 86 533.7 128.8 529.2C171.7 524.7 214.3 511.3 257.2 506.3C300 501.3 343 504.7 385.8 511.2C428.7 517.7 471.3 527.3 514.2 527.7C557 528 600 519 642.8 513.8C685.7 508.7 728.3 507.3 771.2 510.2C814 513 857 520 878.5 523.5L900 527L900 601L878.5 601C857 601 814 601 771.2 601C728.3 601 685.7 601 642.8 601C600 601 557 601 514.2 601C471.3 601 428.7 601 385.8 601C343 601 300 601 257.2 601C214.3 601 171.7 601 128.8 601C86 601 43 601 21.5 601L0 601Z"
       fill="#848ee8"
       id="path14" />
    <path
       d="M0 557L21.5 559.7C43 562.3 86 567.7 128.8 567.7C171.7 567.7 214.3 562.3 257.2 556.5C300 550.7 343 544.3 385.8 547C428.7 549.7 471.3 561.3 514.2 565.3C557 569.3 600 565.7 642.8 564.5C685.7 563.3 728.3 564.7 771.2 566.3C814 568 857 570 878.5 571L900 572L900 601L878.5 601C857 601 814 601 771.2 601C728.3 601 685.7 601 642.8 601C600 601 557 601 514.2 601C471.3 601 428.7 601 385.8 601C343 601 300 601 257.2 601C214.3 601 171.7 601 128.8 601C86 601 43 601 21.5 601L0 601Z"
       fill="#5aa9ff"
       id="path16" />
  </g>
</svg>
